<svg width="534" height="197" viewBox="0 0 534 197" fill="none" xmlns="http://www.w3.org/2000/svg">
<path d="M83.0508 187.311C68.2383 187.311 55.3529 184.603 44.3946 179.186C33.4467 173.769 25.0508 166.087 19.2071 156.139C13.3633 146.181 10.4415 134.608 10.4415 121.42C10.4415 103.129 13.8946 86.889 20.8008 72.7015C27.7071 58.514 37.0665 47.5348 48.879 39.764C60.7019 31.9828 73.8321 28.0921 88.2696 28.0921C101.707 28.0921 111.91 31.5453 118.879 38.4515C125.848 45.3578 129.332 54.4723 129.332 65.7953C129.332 73.389 127.994 79.488 125.316 84.0921C122.639 88.6963 118.816 90.9984 113.848 90.9984C110.358 90.9984 107.619 90.1911 105.629 88.5765C103.639 86.9515 102.645 84.5817 102.645 81.4671C102.645 80.3525 102.895 78.3005 103.395 75.3109C104.134 71.5817 104.504 68.5973 104.504 66.3578C104.504 55.0348 98.4727 49.3734 86.4102 49.3734C78.1915 49.3734 70.3477 52.0505 62.879 57.4046C55.4206 62.7484 49.3894 70.6182 44.7852 81.014C40.1811 91.3994 37.879 103.748 37.879 118.061C37.879 132.988 42.0456 144.53 50.379 152.686C58.7123 160.832 71.03 164.905 87.3321 164.905C95.4258 164.905 103.608 163.879 111.879 161.826C120.16 159.774 129.337 156.634 139.41 152.405C141.275 151.655 142.832 151.28 144.082 151.28C146.072 151.28 147.561 152.03 148.551 153.53C149.551 155.019 150.051 156.946 150.051 159.311C150.051 166.905 145.947 172.504 137.738 176.108C128.905 179.962 119.728 182.795 110.207 184.608C100.686 186.41 91.6342 187.311 83.0508 187.311V187.311ZM228.824 129.076C230.439 129.076 231.678 129.884 232.543 131.498C233.418 133.113 233.855 135.165 233.855 137.655C233.855 143.634 232.053 147.181 228.449 148.295C220.98 150.91 212.767 152.405 203.808 152.78C201.444 163.228 196.777 171.597 189.808 177.889C182.84 184.17 174.939 187.311 166.105 187.311C158.637 187.311 152.256 185.509 146.965 181.905C141.683 178.29 137.673 173.498 134.933 167.53C132.194 161.55 130.824 155.076 130.824 148.108C130.824 138.649 132.626 130.222 136.23 122.826C139.845 115.42 144.824 109.634 151.168 105.467C157.522 101.29 164.553 99.2015 172.262 99.2015C181.72 99.2015 189.34 102.472 195.121 109.014C200.913 115.545 204.308 123.597 205.308 133.17C211.152 132.806 218.121 131.561 226.215 129.436C227.204 129.196 228.074 129.076 228.824 129.076V129.076ZM167.605 167.514C171.585 167.514 175.032 165.899 177.949 162.67C180.876 159.431 182.84 154.764 183.84 148.67C179.986 146.056 177.027 142.634 174.965 138.405C172.913 134.175 171.887 129.696 171.887 124.967C171.887 122.978 172.074 120.983 172.449 118.983H171.512C166.543 118.983 162.407 121.379 159.105 126.17C155.803 130.962 154.152 137.717 154.152 146.436C154.152 153.28 155.491 158.504 158.168 162.108C160.845 165.712 163.991 167.514 167.605 167.514ZM236.85 187.311C231.246 187.311 226.668 184.728 223.115 179.561C219.574 174.394 217.803 167.957 217.803 160.248C217.803 150.915 218.423 142.358 219.662 134.576C220.912 126.795 222.97 118.55 225.834 109.842C227.084 106.113 228.829 103.441 231.069 101.827C233.308 100.202 236.85 99.389 241.694 99.389C244.433 99.389 246.329 99.8265 247.381 100.702C248.444 101.566 248.975 102.873 248.975 104.623C248.975 105.613 248.292 108.972 246.928 114.701C245.688 119.306 244.694 123.472 243.944 127.201C241.454 140.264 240.209 148.978 240.209 153.342C240.209 155.946 240.516 157.78 241.131 158.842C241.756 159.905 242.756 160.436 244.131 160.436C245.996 160.436 248.329 158.571 251.131 154.842C253.933 151.103 256.917 145.436 260.084 137.842C263.261 130.248 266.345 120.915 269.334 109.842C270.324 106.113 271.845 103.441 273.897 101.827C275.949 100.202 279.032 99.389 283.147 99.389C286.001 99.389 287.985 99.7328 289.1 100.42C290.225 101.108 290.787 102.384 290.787 104.248C290.787 107.353 289.235 115.873 286.131 129.811C282.641 145.738 280.897 155.571 280.897 159.311C280.897 161.675 281.391 163.514 282.381 164.826C283.381 166.129 284.694 166.78 286.319 166.78C288.808 166.78 291.761 165.254 295.178 162.201C298.605 159.149 303.178 154.201 308.897 147.358C310.386 145.618 312.069 144.748 313.944 144.748C315.558 144.748 316.829 145.498 317.756 146.998C318.694 148.488 319.162 150.54 319.162 153.155C319.162 158.123 317.98 161.978 315.615 164.717C310.261 171.311 304.506 176.728 298.35 180.967C292.194 185.196 285.194 187.311 277.35 187.311C271.381 187.311 266.996 185.009 264.194 180.405C261.391 175.8 259.99 169.326 259.99 160.983C257.876 169.451 254.704 175.957 250.475 180.498C246.246 185.04 241.704 187.311 236.85 187.311V187.311ZM374.788 144.748C376.403 144.748 377.674 145.498 378.601 146.998C379.538 148.488 380.007 150.54 380.007 153.155C380.007 158.123 378.825 161.978 376.46 164.717C371.116 171.311 365.299 176.728 359.007 180.967C352.726 185.196 345.606 187.311 337.647 187.311C326.689 187.311 318.564 182.332 313.272 172.373C307.991 162.415 305.351 149.535 305.351 133.733C305.351 118.556 307.309 101.264 311.226 81.8578C315.153 62.4411 320.939 45.764 328.585 31.8265C336.241 17.889 345.356 10.9203 355.929 10.9203C361.908 10.9203 366.606 13.6911 370.022 19.2328C373.45 24.764 375.163 32.6911 375.163 43.014C375.163 57.8265 371.054 75.0036 362.835 94.5453C354.627 114.076 343.491 133.425 329.429 152.592C330.304 157.696 331.736 161.337 333.726 163.514C335.715 165.691 338.33 166.78 341.569 166.78C346.663 166.78 351.137 165.316 354.991 162.389C358.856 159.462 363.772 154.451 369.741 147.358C371.241 145.618 372.924 144.748 374.788 144.748ZM351.835 29.389C348.97 29.389 345.731 34.5557 342.116 44.889C338.512 55.2119 335.34 68.0296 332.601 83.3421C329.861 98.6442 328.366 113.327 328.116 127.389C336.96 112.827 343.991 98.238 349.21 83.6234C354.439 68.9984 357.054 55.6494 357.054 43.5765C357.054 34.1182 355.314 29.389 351.835 29.389ZM448.138 144.748C449.763 144.748 451.039 145.498 451.966 146.998C452.904 148.488 453.372 150.54 453.372 153.155C453.372 158.123 452.19 161.978 449.826 164.717C445.221 170.321 438.716 175.488 430.31 180.217C421.914 184.946 412.925 187.311 403.341 187.311C390.279 187.311 380.138 183.764 372.919 176.67C365.701 169.576 362.091 159.868 362.091 147.545C362.091 138.962 363.893 130.967 367.497 123.561C371.112 116.155 376.122 110.274 382.529 105.92C388.945 101.566 396.195 99.389 404.279 99.389C411.497 99.389 417.284 101.535 421.638 105.827C425.992 110.118 428.169 115.936 428.169 123.28C428.169 131.873 425.086 139.248 418.919 145.405C412.763 151.561 402.346 156.446 387.669 160.061C390.773 165.78 396.685 168.639 405.404 168.639C410.997 168.639 417.372 166.681 424.529 162.764C431.685 158.847 437.878 153.712 443.107 147.358C444.596 145.618 446.273 144.748 448.138 144.748ZM401.107 117.686C396.503 117.686 392.612 120.363 389.435 125.717C386.268 131.061 384.685 137.53 384.685 145.123V145.498C392.018 143.759 397.8 141.149 402.029 137.67C406.268 134.181 408.388 130.134 408.388 125.53C408.388 123.165 407.732 121.269 406.419 119.842C405.117 118.405 403.346 117.686 401.107 117.686ZM513.666 124.967C516.395 124.967 518.723 125.931 520.65 127.858C522.588 129.785 523.556 132.181 523.556 135.045C523.556 136.66 523.181 138.399 522.431 140.264C520.442 144.868 517.64 148.728 514.025 151.842C510.421 154.957 506.442 156.514 502.088 156.514C498.598 156.514 495.64 155.269 493.213 152.78C490.796 150.29 489.588 146.931 489.588 142.701C489.588 140.337 489.708 137.785 489.947 135.045C490.197 133.056 490.322 131.686 490.322 130.936C490.322 129.936 490.103 129.191 489.666 128.701C489.239 128.201 488.713 127.951 488.088 127.951C486.348 127.951 483.984 130.035 480.994 134.201C478.004 138.368 475.015 143.873 472.025 150.717C469.046 157.561 466.624 164.78 464.76 172.373C463.385 178.342 461.827 182.326 460.088 184.326C458.348 186.316 455.489 187.311 451.51 187.311C446.78 187.311 443.447 184.821 441.51 179.842C439.583 174.863 438.619 166.899 438.619 155.951C438.619 139.774 440.921 124.405 445.525 109.842C446.65 106.238 448.489 103.597 451.041 101.92C453.593 100.233 457.171 99.389 461.775 99.389C464.265 99.389 466.004 99.7015 466.994 100.327C467.994 100.952 468.494 102.134 468.494 103.873C468.494 105.863 467.556 110.342 465.681 117.311C464.442 122.29 463.447 126.649 462.697 130.389C461.958 134.118 461.338 138.717 460.838 144.186C464.942 133.488 469.546 124.78 474.65 118.061C479.754 111.342 484.728 106.55 489.572 103.686C494.426 100.821 498.848 99.389 502.838 99.389C506.442 99.389 509.208 100.415 511.135 102.467C513.062 104.519 514.025 107.54 514.025 111.53C514.025 113.894 513.343 118.373 511.978 124.967H513.666Z" fill="#4185F1"/>
</svg>
